<mxfile host="app.diagrams.net" modified="2024-03-27T06:33:40.898Z" agent="Mozilla/5.0 (Windows NT 10.0; Win64; x64) AppleWebKit/537.36 (KHTML, like Gecko) Chrome/122.0.0.0 Safari/537.36" etag="-BAo85Jmj5j2TWZuwjCi" version="24.0.5" type="github">
  <diagram name="Trang-1" id="6WqdI3NEc1mItbDLKokB">
    <mxGraphModel dx="1034" dy="724" grid="1" gridSize="10" guides="1" tooltips="1" connect="1" arrows="1" fold="1" page="1" pageScale="1" pageWidth="827" pageHeight="1169" math="0" shadow="0">
      <root>
        <mxCell id="0" />
        <mxCell id="1" parent="0" />
        <mxCell id="uQeBqYyg12_eveGrQPS6-1" value="QLXe" style="rounded=0;whiteSpace=wrap;html=1;" vertex="1" parent="1">
          <mxGeometry x="40" y="40" width="120" height="60" as="geometry" />
        </mxCell>
        <mxCell id="uQeBqYyg12_eveGrQPS6-2" value="QLTS" style="rounded=0;whiteSpace=wrap;html=1;" vertex="1" parent="1">
          <mxGeometry x="40" y="120" width="120" height="60" as="geometry" />
        </mxCell>
        <mxCell id="uQeBqYyg12_eveGrQPS6-3" value="QLCCDC" style="rounded=0;whiteSpace=wrap;html=1;" vertex="1" parent="1">
          <mxGeometry x="40" y="200" width="120" height="60" as="geometry" />
        </mxCell>
        <mxCell id="uQeBqYyg12_eveGrQPS6-4" value="QLPB" style="rounded=0;whiteSpace=wrap;html=1;" vertex="1" parent="1">
          <mxGeometry x="40" y="280" width="120" height="60" as="geometry" />
        </mxCell>
        <mxCell id="uQeBqYyg12_eveGrQPS6-7" value="" style="edgeStyle=orthogonalEdgeStyle;rounded=0;orthogonalLoop=1;jettySize=auto;html=1;" edge="1" parent="1" source="uQeBqYyg12_eveGrQPS6-5" target="uQeBqYyg12_eveGrQPS6-6">
          <mxGeometry relative="1" as="geometry" />
        </mxCell>
        <mxCell id="uQeBqYyg12_eveGrQPS6-5" value="Vị Trí" style="rounded=0;whiteSpace=wrap;html=1;" vertex="1" parent="1">
          <mxGeometry x="380" y="40" width="120" height="60" as="geometry" />
        </mxCell>
        <mxCell id="uQeBqYyg12_eveGrQPS6-9" value="" style="edgeStyle=orthogonalEdgeStyle;rounded=0;orthogonalLoop=1;jettySize=auto;html=1;" edge="1" parent="1" source="uQeBqYyg12_eveGrQPS6-6" target="uQeBqYyg12_eveGrQPS6-8">
          <mxGeometry relative="1" as="geometry" />
        </mxCell>
        <mxCell id="uQeBqYyg12_eveGrQPS6-11" value="" style="edgeStyle=orthogonalEdgeStyle;rounded=0;orthogonalLoop=1;jettySize=auto;html=1;" edge="1" parent="1" source="uQeBqYyg12_eveGrQPS6-6" target="uQeBqYyg12_eveGrQPS6-10">
          <mxGeometry relative="1" as="geometry" />
        </mxCell>
        <mxCell id="uQeBqYyg12_eveGrQPS6-6" value="Site gốc / Chi nhánh" style="rounded=0;whiteSpace=wrap;html=1;" vertex="1" parent="1">
          <mxGeometry x="530" y="40" width="120" height="60" as="geometry" />
        </mxCell>
        <mxCell id="uQeBqYyg12_eveGrQPS6-13" value="" style="edgeStyle=orthogonalEdgeStyle;rounded=0;orthogonalLoop=1;jettySize=auto;html=1;" edge="1" parent="1" source="uQeBqYyg12_eveGrQPS6-8" target="uQeBqYyg12_eveGrQPS6-12">
          <mxGeometry relative="1" as="geometry" />
        </mxCell>
        <mxCell id="uQeBqYyg12_eveGrQPS6-8" value="Phòng ban / CHTT" style="rounded=0;whiteSpace=wrap;html=1;" vertex="1" parent="1">
          <mxGeometry x="680" y="40" width="120" height="60" as="geometry" />
        </mxCell>
        <mxCell id="uQeBqYyg12_eveGrQPS6-17" value="" style="edgeStyle=orthogonalEdgeStyle;rounded=0;orthogonalLoop=1;jettySize=auto;html=1;" edge="1" parent="1" source="uQeBqYyg12_eveGrQPS6-10" target="uQeBqYyg12_eveGrQPS6-16">
          <mxGeometry relative="1" as="geometry" />
        </mxCell>
        <mxCell id="uQeBqYyg12_eveGrQPS6-10" value="Địa chỉ thực tế" style="rounded=0;whiteSpace=wrap;html=1;" vertex="1" parent="1">
          <mxGeometry x="530" y="130" width="120" height="60" as="geometry" />
        </mxCell>
        <mxCell id="uQeBqYyg12_eveGrQPS6-12" value="Địa chỉ thực tế / Trực thuộc" style="rounded=0;whiteSpace=wrap;html=1;" vertex="1" parent="1">
          <mxGeometry x="680" y="130" width="120" height="60" as="geometry" />
        </mxCell>
        <mxCell id="uQeBqYyg12_eveGrQPS6-15" value="" style="endArrow=none;html=1;rounded=0;exitX=1;exitY=0.5;exitDx=0;exitDy=0;entryX=0;entryY=0.5;entryDx=0;entryDy=0;" edge="1" parent="1" source="uQeBqYyg12_eveGrQPS6-10" target="uQeBqYyg12_eveGrQPS6-12">
          <mxGeometry width="50" height="50" relative="1" as="geometry">
            <mxPoint x="390" y="400" as="sourcePoint" />
            <mxPoint x="440" y="350" as="targetPoint" />
          </mxGeometry>
        </mxCell>
        <mxCell id="uQeBqYyg12_eveGrQPS6-19" value="" style="edgeStyle=orthogonalEdgeStyle;rounded=0;orthogonalLoop=1;jettySize=auto;html=1;" edge="1" parent="1" source="uQeBqYyg12_eveGrQPS6-16" target="uQeBqYyg12_eveGrQPS6-18">
          <mxGeometry relative="1" as="geometry" />
        </mxCell>
        <mxCell id="uQeBqYyg12_eveGrQPS6-16" value="QG" style="rounded=0;whiteSpace=wrap;html=1;" vertex="1" parent="1">
          <mxGeometry x="530" y="220" width="120" height="60" as="geometry" />
        </mxCell>
        <mxCell id="uQeBqYyg12_eveGrQPS6-21" value="" style="edgeStyle=orthogonalEdgeStyle;rounded=0;orthogonalLoop=1;jettySize=auto;html=1;" edge="1" parent="1" source="uQeBqYyg12_eveGrQPS6-18" target="uQeBqYyg12_eveGrQPS6-20">
          <mxGeometry relative="1" as="geometry" />
        </mxCell>
        <mxCell id="uQeBqYyg12_eveGrQPS6-18" value="Tỉnh / TP" style="rounded=0;whiteSpace=wrap;html=1;" vertex="1" parent="1">
          <mxGeometry x="660" y="220" width="120" height="60" as="geometry" />
        </mxCell>
        <mxCell id="uQeBqYyg12_eveGrQPS6-23" value="" style="edgeStyle=orthogonalEdgeStyle;rounded=0;orthogonalLoop=1;jettySize=auto;html=1;" edge="1" parent="1" source="uQeBqYyg12_eveGrQPS6-20" target="uQeBqYyg12_eveGrQPS6-22">
          <mxGeometry relative="1" as="geometry" />
        </mxCell>
        <mxCell id="uQeBqYyg12_eveGrQPS6-20" value="Quận / Huyện" style="whiteSpace=wrap;html=1;rounded=0;" vertex="1" parent="1">
          <mxGeometry x="660" y="290" width="120" height="60" as="geometry" />
        </mxCell>
        <mxCell id="uQeBqYyg12_eveGrQPS6-25" value="" style="edgeStyle=orthogonalEdgeStyle;rounded=0;orthogonalLoop=1;jettySize=auto;html=1;" edge="1" parent="1" source="uQeBqYyg12_eveGrQPS6-22" target="uQeBqYyg12_eveGrQPS6-24">
          <mxGeometry relative="1" as="geometry" />
        </mxCell>
        <mxCell id="uQeBqYyg12_eveGrQPS6-22" value="Phường / Xã" style="whiteSpace=wrap;html=1;rounded=0;" vertex="1" parent="1">
          <mxGeometry x="660" y="360" width="120" height="60" as="geometry" />
        </mxCell>
        <mxCell id="uQeBqYyg12_eveGrQPS6-24" value="Số Nhà, Đường" style="whiteSpace=wrap;html=1;rounded=0;" vertex="1" parent="1">
          <mxGeometry x="660" y="430" width="120" height="60" as="geometry" />
        </mxCell>
      </root>
    </mxGraphModel>
  </diagram>
</mxfile>
